<svg width="180" height="180" viewBox="0 0 180 180" fill="none" xmlns="http://www.w3.org/2000/svg">
    <circle cx="90" cy="90" r="90" fill="#1F1F1F"/>
    <path d="M101.71 60.9V38.97C101.71 38.97 98.14 38.6867 91 38.12V34.21C93.1533 34.21 97.3467 33.02 103.58 30.64C109.927 28.1467 114.403 26.9 117.01 26.9V123.63L127.72 124.48V128.39C125.567 128.39 121.317 129.637 114.97 132.13C108.737 134.51 104.317 135.7 101.71 135.7V130.09C96.27 133.83 89.47 135.7 81.31 135.7C77.57 135.7 73.83 135.077 70.09 133.83C66.4633 132.47 62.78 130.43 59.04 127.71C55.4133 124.877 52.41 120.74 50.03 115.3C47.7633 109.86 46.63 103.513 46.63 96.26C46.63 83.5667 50.1433 73.82 57.17 67.02C64.31 60.22 73.6033 56.82 85.05 56.82C91.51 56.82 97.0633 58.18 101.71 60.9ZM101.71 66.17C97.63 63.79 92.4167 62.6 86.07 62.6C79.8367 62.6 74.3967 65.6033 69.75 71.61C65.1033 77.6167 62.78 85.8333 62.78 96.26C62.78 103.173 64.7633 110.54 68.73 118.36C72.81 126.067 77.57 129.92 83.01 129.92C90.49 129.92 96.7233 128.107 101.71 124.48V66.17Z" fill="white"/>
</svg>