<svg width="21" height="16" viewBox="0 0 21 16" fill="none" xmlns="http://www.w3.org/2000/svg">
    <path d="M0.425688 15.584C0.372355 15.456 0.345688 15.1733 0.345688 14.736C0.345688 14.2987 0.553688 13.1253 0.969688 11.216C1.38569 9.296 1.59369 7.81867 1.59369 6.784C1.59369 6.58133 1.54569 6.368 1.44969 6.144C1.35369 5.90933 1.25235 5.728 1.14569 5.6L1.00169 5.424L1.01769 5.216C1.51902 5.056 2.40435 4.976 3.67369 4.976C3.79102 5.2 3.86569 5.51467 3.89769 5.92C4.71902 5.248 5.40169 4.912 5.94569 4.912C6.50036 4.912 6.94302 5.14133 7.27369 5.6C7.61502 6.05867 7.78569 6.73067 7.78569 7.616C7.78569 9.16267 7.50302 10.3147 6.93769 11.072C6.37235 11.8187 5.65769 12.192 4.79369 12.192C4.34569 12.192 3.97235 12.128 3.67369 12L3.51369 11.936L3.62569 11.312C3.72169 11.3333 3.83369 11.344 3.96169 11.344C4.23902 11.344 4.47902 11.216 4.68169 10.96C4.89502 10.704 5.05502 10.3787 5.16169 9.984C5.37502 9.19467 5.48169 8.464 5.48169 7.792C5.48169 6.832 5.28435 6.352 4.88969 6.352C4.58035 6.352 4.24969 6.47467 3.89769 6.72C3.85502 7.46667 3.63635 8.77333 3.24169 10.64C2.84702 12.5067 2.64969 14.0107 2.64969 15.152C2.07369 15.3867 1.33235 15.5307 0.425688 15.584ZM8.51469 12.048H8.40269C8.38135 11.9627 8.37069 11.7707 8.37069 11.472C8.37069 11.1627 8.51469 10.3413 8.80269 9.008C9.09069 7.67467 9.23469 6.912 9.23469 6.72C9.23469 6.38933 9.08535 6.02667 8.78669 5.632L8.64269 5.44L8.65869 5.232C9.23469 5.072 10.1574 4.992 11.4267 4.992C11.5547 5.26933 11.6187 5.65867 11.6187 6.16C11.736 5.968 11.9814 5.712 12.3547 5.392C12.728 5.072 13.112 4.912 13.5067 4.912C14.0827 4.912 14.3707 5.41333 14.3707 6.416C14.3174 6.48 14.2427 6.56533 14.1467 6.672C14.0614 6.768 13.88 6.90667 13.6027 7.088C13.336 7.26933 13.0747 7.38133 12.8187 7.424C12.808 7.424 12.7174 7.28 12.5467 6.992C12.376 6.704 12.248 6.56 12.1627 6.56C11.896 6.656 11.6614 6.816 11.4587 7.04C10.968 9.248 10.7227 10.6773 10.7227 11.328C10.7227 11.5627 10.728 11.728 10.7387 11.824C10.3654 11.9733 9.62402 12.048 8.51469 12.048ZM17.8468 0.832C17.8468 1.64267 17.5748 3.232 17.0308 5.6C17.6708 5.14133 18.2468 4.912 18.7588 4.912C19.2815 4.912 19.7241 5.13067 20.0868 5.568C20.4601 5.99467 20.6468 6.65067 20.6468 7.536C20.6468 9.01867 20.3535 10.1653 19.7668 10.976C19.1908 11.7867 18.4868 12.192 17.6548 12.192C17.3455 12.192 17.0308 12.1547 16.7108 12.08C16.4015 12.0053 16.1668 11.9253 16.0068 11.84L15.7668 11.728C15.0841 11.9627 14.4175 12.08 13.7668 12.08C13.7028 12.0267 13.6708 11.7707 13.6708 11.312C13.6708 10.8427 13.9695 9.30667 14.5668 6.704C15.1641 4.09067 15.4628 2.304 15.4628 1.344C15.4628 1.17333 15.4361 0.954666 15.3828 0.688C16.2148 0.4 17.0095 0.256 17.7668 0.256C17.8201 0.405333 17.8468 0.597333 17.8468 0.832ZM17.7028 6.272C17.5001 6.272 17.1961 6.368 16.7908 6.56C16.3001 8.62933 16.0335 10.112 15.9908 11.008C16.3108 11.1467 16.6148 11.216 16.9028 11.216C17.3081 11.216 17.6441 10.8427 17.9108 10.096C18.1881 9.34933 18.3268 8.528 18.3268 7.632C18.3268 6.72533 18.1188 6.272 17.7028 6.272Z" fill="#2A2A2A"/>
</svg>