<svg width="24" height="24" viewBox="0 0 24 24" fill="none" xmlns="http://www.w3.org/2000/svg">
<path fill-rule="evenodd" clip-rule="evenodd" d="M12 24C18.6274 24 24 18.6274 24 12C24 5.37258 18.6274 0 12 0C5.37258 0 0 5.37258 0 12C0 18.6274 5.37258 24 12 24ZM7 17.999V15.6768L13.7222 8.89347L16.0444 11.2157L9.32222 17.999H7ZM17.8167 8.58791C18.0611 8.83236 18.0611 9.19903 17.8167 9.44347L16.7778 10.6046L14.4556 8.28233L15.5556 7.18233C15.8 6.93789 16.1667 6.93789 16.4111 7.18233L17.8167 8.58791Z" fill="white"/>
</svg>
