<svg width="25" height="25" viewBox="0 0 25 25" fill="none" xmlns="http://www.w3.org/2000/svg">
    <path d="M7.36425 16.0842C7.36425 15.669 7.07616 15.4214 6.56785 15.4214C6.36029 15.4214 6.21972 15.4419 6.14619 15.4615V16.7936C6.23325 16.8132 6.34027 16.8197 6.48779 16.8197C7.0296 16.8197 7.36425 16.546 7.36425 16.0842Z" fill="white"/>
    <path d="M10.5109 15.4354C10.2833 15.4354 10.1362 15.455 10.0491 15.4754V18.4256C10.1362 18.446 10.2768 18.446 10.4039 18.446C11.3273 18.4525 11.9296 17.9442 11.9296 16.8672C11.9361 15.9306 11.3873 15.4354 10.5109 15.4354Z" fill="white"/>
    <path d="M16.3572 0H6.31616C4.84927 0 3.65537 1.19473 3.65537 2.66079V12.4999H3.39549C2.80344 12.4999 2.32329 12.9796 2.32329 13.5722V20.0747C2.32329 20.6672 2.80339 21.1468 3.39549 21.1468H3.65537V22.3392C3.65537 23.8068 4.84927 24.9999 6.31616 24.9999H20.0167C21.4827 24.9999 22.6767 23.8068 22.6767 22.3392V6.29739L16.3572 0ZM5.13611 14.7457C5.45034 14.6926 5.89201 14.6525 6.51429 14.6525C7.14315 14.6525 7.59136 14.7726 7.89252 15.0137C8.1802 15.2409 8.37433 15.616 8.37433 16.0573C8.37433 16.4986 8.22723 16.8737 7.95957 17.1279C7.61143 17.4556 7.09659 17.6027 6.49433 17.6027C6.36029 17.6027 6.24015 17.596 6.14619 17.583V19.1954H5.13611V14.7457ZM20.0167 23.3704H6.31616C5.74818 23.3704 5.28565 22.9079 5.28565 22.3392V21.1468H18.0574C18.6495 21.1468 19.1296 20.6672 19.1296 20.0747V13.5722C19.1296 12.9796 18.6495 12.4999 18.0574 12.4999H5.28565V2.66079C5.28565 2.09363 5.74823 1.63111 6.31616 1.63111L15.7476 1.62126V5.10744C15.7476 6.12571 16.5738 6.9527 17.5928 6.9527L21.0079 6.9429L21.0463 22.3391C21.0463 22.9079 20.5846 23.3704 20.0167 23.3704ZM9.02565 19.175V14.7457C9.40028 14.686 9.88857 14.6525 10.4039 14.6525C11.2603 14.6525 11.8156 14.8062 12.2507 15.1338C12.719 15.482 13.0132 16.0369 13.0132 16.8336C13.0132 17.6966 12.699 18.2924 12.2638 18.66C11.789 19.0547 11.0662 19.2419 10.1832 19.2419C9.65441 19.2419 9.27977 19.2084 9.02565 19.175ZM16.3278 16.5526V17.382H14.7085V19.1954H13.6849V14.686H16.4414V15.522H14.7085V16.5526H16.3278Z" fill="white"/>
</svg>