<svg width="24" height="24" viewBox="0 0 24 24" fill="none" xmlns="http://www.w3.org/2000/svg">
<circle cx="12" cy="12" r="12" fill="white"/>
<g clip-path="url(#clip0)">
<path d="M15.2148 8.2771H10.0919L10.5212 7.22776C10.6125 7.00384 10.5457 6.7478 10.3572 6.59651C10.1683 6.44532 9.9026 6.43694 9.70396 6.57496L6.23517 8.98433C6.08322 9.08987 5.995 9.26526 6.00069 9.45009C6.00635 9.6348 6.10517 9.80431 6.2633 9.90026L9.89044 12.1027C10.0968 12.228 10.3607 12.2031 10.5398 12.0415C10.719 11.8798 10.7709 11.617 10.6677 11.399L10.191 10.3904H15.2148C15.5855 10.3904 15.8871 10.6978 15.8871 11.0685V14.7429C15.8871 15.1136 15.5855 15.4096 15.2148 15.4096H9.65512C9.15917 15.4096 8.75712 15.8116 8.75712 16.3076V16.6249C8.75712 17.1209 9.15917 17.5229 9.65512 17.5229H15.2148C16.7508 17.5229 18.0004 16.279 18.0004 14.7429V11.0685C18.0004 9.5324 16.7508 8.2771 15.2148 8.2771Z" fill="#FFDC33"/>
</g>
<defs>
<clipPath id="clip0">
<rect x="6" y="6" width="12" height="12" fill="white"/>
</clipPath>
</defs>
</svg>