<svg width="19" height="19" viewBox="0 0 19 19" fill="none" xmlns="http://www.w3.org/2000/svg">
    <path d="M17.9444 7.94411H16.8889V0.527778C16.8889 0.236444 16.652 0 16.3611 0H2.63889C2.34756 0 2.11111 0.236444 2.11111 0.527778V7.94327H1.05556C0.472467 7.94327 0 8.41573 0 8.99882V17.4433C0 18.0264 0.472467 18.4988 1.05556 18.4988H17.9444C18.5275 18.4988 19 18.0264 19 17.4433V8.99882C19 8.41573 18.5275 7.94411 17.9444 7.94411ZM13.7353 15.8338H5.26427V13.7226H13.7353V15.8338ZM15.8333 7.94411H14.7778C14.1947 7.94411 13.7222 8.41658 13.7222 8.99967V11.1108H5.27778V8.99967C5.27778 8.41658 4.80531 7.94411 4.22222 7.94411H3.16667V1.05556H15.8333V7.94411ZM13.7222 3.4618H5.27778C4.98644 3.4618 4.75 3.22536 4.75 2.93402C4.75 2.64269 4.98644 2.40624 5.27778 2.40624H13.7222C14.0131 2.40624 14.25 2.64269 14.25 2.93402C14.25 3.22536 14.0131 3.4618 13.7222 3.4618ZM13.7222 5.57291H5.27778C4.98644 5.57291 4.75 5.33647 4.75 5.04513C4.75 4.7538 4.98644 4.51736 5.27778 4.51736H13.7222C14.0131 4.51736 14.25 4.7538 14.25 5.04513C14.25 5.33647 14.0131 5.57291 13.7222 5.57291ZM13.7222 7.68402H5.27778C4.98644 7.68402 4.75 7.44758 4.75 7.15624C4.75 6.86491 4.98644 6.62847 5.27778 6.62847H13.7222C14.0131 6.62847 14.25 6.86491 14.25 7.15624C14.25 7.44758 14.0131 7.68402 13.7222 7.68402Z" fill="#D9DBDB"/>
</svg>
