<svg width="24" height="24" viewBox="0 0 24 24" fill="none" xmlns="http://www.w3.org/2000/svg">
<path d="M12 0C5.37272 0 0 5.37272 0 12C0 18.6273 5.37272 24 12 24C18.6273 24 24 18.6273 24 12C24 5.37272 18.6273 0 12 0ZM12 22C6.47728 22 2.00002 17.5227 2.00002 12C2.00002 6.47728 6.47728 2.00002 12 2.00002C17.5227 2.00002 22 6.47728 22 12C22 17.5227 17.5227 22 12 22Z" fill="#D9DBDB"/>
<path d="M12.7071 5.29288C12.7067 5.2925 12.7064 5.29222 12.706 5.2919C12.6831 5.26902 12.659 5.24727 12.6338 5.22665C12.6222 5.21708 12.61 5.20883 12.598 5.19988C12.5839 5.18929 12.57 5.17827 12.5552 5.16843C12.541 5.15886 12.5262 5.15061 12.5115 5.1419C12.4982 5.13393 12.4851 5.12554 12.4714 5.11818C12.4565 5.11021 12.4411 5.10341 12.4259 5.09624C12.4115 5.08944 12.3974 5.08232 12.3827 5.07618C12.3679 5.07008 12.3528 5.06511 12.3378 5.05977C12.322 5.0541 12.3065 5.04805 12.2903 5.04318C12.2753 5.03863 12.2601 5.0353 12.2449 5.0315C12.2285 5.02733 12.2122 5.02274 12.1955 5.01941C12.1779 5.01594 12.1602 5.01388 12.1425 5.0113C12.1279 5.00924 12.1136 5.00643 12.0988 5.00497C12.0331 4.9985 11.967 4.9985 11.9014 5.00497C11.8866 5.00643 11.8723 5.00919 11.8576 5.0113C11.84 5.01383 11.8222 5.0159 11.8047 5.01941C11.7879 5.02274 11.7717 5.02733 11.7552 5.0315C11.74 5.0353 11.7248 5.03863 11.7098 5.04318C11.6937 5.04805 11.6781 5.0541 11.6623 5.05977C11.6473 5.06516 11.6322 5.07008 11.6174 5.07618C11.6027 5.08227 11.5886 5.08944 11.5743 5.09624C11.559 5.10341 11.5437 5.11016 11.5288 5.11818C11.515 5.12554 11.5019 5.13393 11.4886 5.1419C11.474 5.15061 11.4591 5.15891 11.4449 5.16843C11.4301 5.17832 11.4163 5.18929 11.4021 5.19988C11.3901 5.20883 11.3779 5.21713 11.3663 5.22665C11.3412 5.24722 11.3171 5.26897 11.2941 5.2919C11.2937 5.29222 11.2934 5.29255 11.293 5.29288L7.29304 9.29286C6.90252 9.68338 6.90252 10.3166 7.29304 10.7071C7.68355 11.0976 8.31674 11.0976 8.70726 10.7071L11.0001 8.41419V18C11.0001 18.5523 11.4479 19 12.0001 19C12.5524 19 13.0001 18.5523 13.0001 18V8.41419L15.293 10.7071C15.6835 11.0976 16.3167 11.0976 16.7072 10.7071C17.0977 10.3166 17.0977 9.68338 16.7072 9.29286L12.7071 5.29288Z" fill="#D9DBDB"/>
</svg>
