<svg width="94" height="14" viewBox="0 0 94 14" fill="none" xmlns="http://www.w3.org/2000/svg">
    <path d="M3.97592 2.092H0.177919V0.399999H10.0419V2.092H6.24392V13H3.97592V2.092ZM11.2673 0.399999H13.5533V5.674H18.7733V0.399999H21.0593V13H18.7733V7.51H13.5533V13H11.2673V0.399999ZM26.3599 7.978L22.2919 0.399999H24.7759L27.4939 5.89L30.2119 0.399999H32.6959L28.6459 7.978V13H26.3599V7.978ZM36.9453 13.18C36.0453 13.18 35.2173 12.994 34.4613 12.622C33.7173 12.25 33.1113 11.722 32.6433 11.038L33.9933 9.742C34.3773 10.21 34.8453 10.594 35.3973 10.894C35.9613 11.194 36.5013 11.344 37.0173 11.344C37.6293 11.344 38.1153 11.2 38.4753 10.912C38.8473 10.624 39.0333 10.246 39.0333 9.778C39.0333 9.442 38.9733 9.166 38.8533 8.95C38.7333 8.722 38.5113 8.5 38.1873 8.284C37.8633 8.056 37.3653 7.774 36.6933 7.438C35.8053 7.006 35.1033 6.598 34.5873 6.214C34.0713 5.83 33.6933 5.422 33.4533 4.99C33.2133 4.558 33.0933 4.06 33.0933 3.496C33.0933 2.848 33.2613 2.278 33.5973 1.786C33.9453 1.282 34.4253 0.898 35.0373 0.633999C35.6493 0.357999 36.3573 0.219999 37.1613 0.219999C38.0373 0.219999 38.8173 0.393999 39.5013 0.741999C40.1973 1.09 40.7073 1.564 41.0313 2.164L39.5733 3.244C39.2853 2.872 38.9373 2.584 38.5293 2.38C38.1333 2.164 37.7073 2.056 37.2513 2.056C36.6633 2.056 36.2013 2.182 35.8653 2.434C35.5413 2.674 35.3793 3.016 35.3793 3.46C35.3793 3.736 35.4513 3.976 35.5953 4.18C35.7513 4.372 36.0213 4.588 36.4053 4.828C36.8013 5.068 37.4013 5.38 38.2053 5.764C39.3453 6.304 40.1433 6.868 40.5993 7.456C41.0673 8.032 41.3013 8.758 41.3013 9.634C41.3013 10.342 41.1213 10.966 40.7613 11.506C40.4013 12.034 39.8913 12.448 39.2313 12.748C38.5713 13.036 37.8093 13.18 36.9453 13.18ZM46.3763 13.18C45.4763 13.18 44.6483 12.994 43.8923 12.622C43.1483 12.25 42.5423 11.722 42.0743 11.038L43.4243 9.742C43.8083 10.21 44.2763 10.594 44.8283 10.894C45.3923 11.194 45.9323 11.344 46.4483 11.344C47.0603 11.344 47.5463 11.2 47.9063 10.912C48.2783 10.624 48.4643 10.246 48.4643 9.778C48.4643 9.442 48.4043 9.166 48.2843 8.95C48.1643 8.722 47.9423 8.5 47.6183 8.284C47.2943 8.056 46.7963 7.774 46.1243 7.438C45.2363 7.006 44.5343 6.598 44.0183 6.214C43.5023 5.83 43.1243 5.422 42.8843 4.99C42.6443 4.558 42.5243 4.06 42.5243 3.496C42.5243 2.848 42.6923 2.278 43.0283 1.786C43.3763 1.282 43.8563 0.898 44.4683 0.633999C45.0803 0.357999 45.7883 0.219999 46.5923 0.219999C47.4683 0.219999 48.2483 0.393999 48.9323 0.741999C49.6283 1.09 50.1383 1.564 50.4623 2.164L49.0043 3.244C48.7163 2.872 48.3683 2.584 47.9603 2.38C47.5643 2.164 47.1383 2.056 46.6823 2.056C46.0943 2.056 45.6323 2.182 45.2963 2.434C44.9723 2.674 44.8103 3.016 44.8103 3.46C44.8103 3.736 44.8823 3.976 45.0263 4.18C45.1823 4.372 45.4523 4.588 45.8363 4.828C46.2323 5.068 46.8323 5.38 47.6363 5.764C48.7763 6.304 49.5743 6.868 50.0303 7.456C50.4983 8.032 50.7323 8.758 50.7323 9.634C50.7323 10.342 50.5523 10.966 50.1923 11.506C49.8323 12.034 49.3223 12.448 48.6623 12.748C48.0023 13.036 47.2403 13.18 46.3763 13.18ZM52.2613 0.399999H60.3433V2.236H54.5293V5.458H59.7313V7.294H54.5293V11.164H60.3433V13H52.2613V0.399999ZM71.9431 0.399999V13H69.8191L64.3291 4.162V13H62.0611V0.399999H64.3111L69.6751 9.094V0.399999H71.9431Z" fill="#3B3B3B"/>
    <path d="M75.0275 11.272C75.8435 10.684 76.6715 9.982 77.5115 9.166C78.3635 8.35 79.0835 7.474 79.6715 6.538C80.2595 5.602 80.5535 4.714 80.5535 3.874C80.5535 3.31 80.3915 2.866 80.0675 2.542C79.7435 2.206 79.3055 2.038 78.7535 2.038C78.1895 2.038 77.6495 2.188 77.1335 2.488C76.6295 2.776 76.2215 3.166 75.9095 3.658L74.6855 2.362C75.0935 1.69 75.6575 1.168 76.3775 0.795999C77.0975 0.411999 77.8955 0.219999 78.7715 0.219999C80.0435 0.219999 81.0395 0.538 81.7595 1.174C82.4915 1.81 82.8575 2.686 82.8575 3.802C82.8575 5.83 81.2555 8.32 78.0515 11.272H83.3255V13H75.0275V11.272ZM90.0858 10.966H84.4518V9.292L89.8518 0.399999H92.3538V9.148H93.7218V10.966H92.3538V13H90.0858V10.966ZM90.0858 9.148V3.37L86.5758 9.148H90.0858Z" fill="#2FD4B1"/>
</svg>
