<svg width="21" height="21" viewBox="0 0 21 21" fill="none" xmlns="http://www.w3.org/2000/svg">
    <path d="M10.5004 0C4.71091 0 0.00100708 4.71016 0.00100708 10.4996C0.00100708 16.2893 4.71091 20.9995 10.5004 20.9995C16.2898 20.9995 21 16.2893 21 10.4996C21 4.71016 16.2896 0 10.5004 0ZM10.5004 19.4815C5.5481 19.4815 1.51877 15.4522 1.51877 10.4996C1.51877 5.54709 5.54784 1.51802 10.5004 1.51802C15.4529 1.51802 19.482 5.54709 19.482 10.4996C19.482 15.4522 15.4529 19.4815 10.5004 19.4815Z" fill="white"/>
    <path d="M13.5384 11.466C13.5344 11.466 13.5308 11.466 13.5268 11.466L11.2594 11.4999V5.56602C11.2594 5.14679 10.9196 4.80701 10.5004 4.80701C10.0811 4.80701 9.74136 5.14679 9.74136 5.56602V12.2706C9.74136 12.2721 9.74187 12.2736 9.74187 12.2751C9.74187 12.2777 9.74136 12.28 9.74136 12.282C9.74187 12.3128 9.74769 12.3419 9.75174 12.3715C9.75427 12.39 9.75452 12.409 9.75806 12.4272C9.76489 12.4598 9.77628 12.4902 9.78716 12.5208C9.79272 12.5368 9.79627 12.5535 9.80284 12.5686C9.816 12.5998 9.83371 12.6281 9.85066 12.6572C9.8585 12.6701 9.86432 12.6843 9.87267 12.6969C9.8919 12.725 9.91492 12.75 9.93769 12.7756C9.94731 12.7862 9.95515 12.7984 9.96527 12.8087C9.98981 12.833 10.0174 12.8535 10.045 12.8745C10.0561 12.8829 10.066 12.893 10.0774 12.9008C10.1072 12.9211 10.1398 12.937 10.1725 12.9527C10.1839 12.958 10.194 12.9656 10.2056 12.9704C10.2436 12.9863 10.2841 12.9975 10.325 13.0073C10.3326 13.0091 10.3397 13.0127 10.3476 13.0142C10.3966 13.024 10.4475 13.0296 10.4996 13.0296C10.5034 13.0296 10.5075 13.0296 10.5113 13.0296L13.5493 12.9841C13.9683 12.9777 14.303 12.6326 14.2969 12.2137C14.2911 11.7985 13.9523 11.466 13.5384 11.466Z" fill="white"/>
</svg>
