<svg width="491" height="491" viewBox="0 0 491 491" fill="#ffffff" xmlns="http://www.w3.org/2000/svg">
    <g clip-path="url(#clip0_1590_40)">
        <path d="M245.2 490.4C380.4 490.4 490.4 380.4 490.4 245.2C490.4 110 380.4 0 245.2 0C110 0 0 110 0 245.2C0 380.4 110 490.4 245.2 490.4ZM245.2 24.5C366.9 24.5 465.9 123.5 465.9 245.2C465.9 366.9 366.9 465.9 245.2 465.9C123.5 465.9 24.5 366.9 24.5 245.2C24.5 123.5 123.5 24.5 245.2 24.5Z" fill="white"/>
        <path d="M185 216.2L233 168.2V351.6C233 358.4 238.5 363.9 245.3 363.9C252.1 363.9 257.6 358.4 257.6 351.6V168.3L305.6 216.3C308 218.7 311.1 219.9 314.3 219.9C317.5 219.9 320.6 218.7 323 216.3C327.8 211.5 327.8 203.8 323 199L254.1 130.1C249.3 125.3 241.6 125.3 236.8 130.1L167.9 199C163.1 203.8 163.1 211.5 167.9 216.3C172.4 221 180.2 221 185 216.2Z" fill="white"/>
    </g>
    <defs>
        <clipPath id="clip0_1590_40">
            <rect width="490.4" height="490.4" fill="white"/>
        </clipPath>
    </defs>
</svg>