<svg width="16" height="10" viewBox="0 0 16 10" fill="none" xmlns="http://www.w3.org/2000/svg">
    <path fill-rule="evenodd" clip-rule="evenodd" d="M15.1469 1.125C15.2581 0.7725 15.1469 0.51625 14.6547 0.51625H13.0181C12.6053 0.51625 12.4147 0.740625 12.3034 0.980625C12.3034 0.980625 11.4616 3.03062 10.2859 4.35969C9.90469 4.74406 9.73 4.87219 9.52344 4.87219C9.41219 4.87219 9.26906 4.74406 9.26906 4.39187V1.10844C9.26906 0.692188 9.14219 0.5 8.7925 0.5H6.21875C5.96437 0.5 5.80562 0.692188 5.80562 0.884375C5.80562 1.28469 6.39344 1.38094 6.45687 2.50187V4.9375C6.45687 5.46594 6.36313 5.5625 6.155 5.5625C5.59906 5.5625 4.24875 3.49656 3.43875 1.1425C3.28125 0.67625 3.12125 0.5 2.70813 0.5H1.05594C0.579375 0.5 0.5 0.724063 0.5 0.964375C0.5 1.39688 1.05594 3.57469 3.08938 6.45719C4.43969 8.42594 6.36187 9.48406 8.09344 9.48406C9.14219 9.48406 9.26906 9.24375 9.26906 8.84344V7.35406C9.26906 6.87375 9.36437 6.79375 9.69812 6.79375C9.93625 6.79375 10.3653 6.92156 11.3344 7.86656C12.4463 8.9875 12.6369 9.5 13.2566 9.5H14.8928C15.3694 9.5 15.5919 9.25969 15.4647 8.79531C15.3219 8.33094 14.7816 7.65844 14.0825 6.85781C13.7013 6.40969 13.1294 5.91312 12.9547 5.67281C12.7166 5.3525 12.78 5.22438 12.9547 4.93625C12.9387 4.93625 14.9406 2.08563 15.1469 1.12375" fill="white"/>
</svg>